<mxfile host="app.diagrams.net" modified="2023-11-28T19:00:52.177Z" agent="Mozilla/5.0 (Windows NT 10.0; Win64; x64) AppleWebKit/537.36 (KHTML, like Gecko) Chrome/119.0.0.0 Safari/537.36" etag="BeP_vPwNQZ_JdEzcoqQ6" version="22.1.4" type="device">
  <diagram name="Page-1" id="bhXCNgOG9VblNEhB2orN">
    <mxGraphModel dx="3187" dy="1760" grid="1" gridSize="10" guides="1" tooltips="1" connect="1" arrows="1" fold="1" page="1" pageScale="1" pageWidth="2339" pageHeight="3300" math="0" shadow="0">
      <root>
        <mxCell id="0" />
        <mxCell id="1" parent="0" />
        <mxCell id="DM1cx61J0RA44Y7iWUZQ-169" style="edgeStyle=orthogonalEdgeStyle;rounded=0;orthogonalLoop=1;jettySize=auto;html=1;entryX=0.5;entryY=0;entryDx=0;entryDy=0;" edge="1" parent="1" source="DM1cx61J0RA44Y7iWUZQ-170" target="DM1cx61J0RA44Y7iWUZQ-236">
          <mxGeometry relative="1" as="geometry" />
        </mxCell>
        <mxCell id="DM1cx61J0RA44Y7iWUZQ-170" value="&amp;amp;m&amp;amp;&quot;x&quot;" style="shape=parallelogram;perimeter=parallelogramPerimeter;whiteSpace=wrap;html=1;fixedSize=1;fontSize=16;" vertex="1" parent="1">
          <mxGeometry x="300" y="1825.5" width="160" height="60" as="geometry" />
        </mxCell>
        <mxCell id="DM1cx61J0RA44Y7iWUZQ-171" value="" style="edgeStyle=none;curved=1;rounded=0;orthogonalLoop=1;jettySize=auto;html=1;fontSize=12;startSize=8;endSize=8;" edge="1" parent="1" source="DM1cx61J0RA44Y7iWUZQ-172" target="DM1cx61J0RA44Y7iWUZQ-179">
          <mxGeometry relative="1" as="geometry" />
        </mxCell>
        <mxCell id="DM1cx61J0RA44Y7iWUZQ-172" value="Be: m" style="shape=parallelogram;perimeter=parallelogramPerimeter;whiteSpace=wrap;html=1;fixedSize=1;fontSize=16;" vertex="1" parent="1">
          <mxGeometry x="647" y="208" width="150" height="60" as="geometry" />
        </mxCell>
        <mxCell id="DM1cx61J0RA44Y7iWUZQ-173" value="" style="edgeStyle=none;curved=1;rounded=0;orthogonalLoop=1;jettySize=auto;html=1;fontSize=12;startSize=8;endSize=8;" edge="1" parent="1" source="DM1cx61J0RA44Y7iWUZQ-174" target="DM1cx61J0RA44Y7iWUZQ-172">
          <mxGeometry relative="1" as="geometry" />
        </mxCell>
        <mxCell id="DM1cx61J0RA44Y7iWUZQ-174" value="START" style="ellipse;whiteSpace=wrap;html=1;fontSize=16;" vertex="1" parent="1">
          <mxGeometry x="642" y="82" width="160" height="80" as="geometry" />
        </mxCell>
        <mxCell id="DM1cx61J0RA44Y7iWUZQ-175" style="edgeStyle=orthogonalEdgeStyle;rounded=0;orthogonalLoop=1;jettySize=auto;html=1;" edge="1" parent="1" source="DM1cx61J0RA44Y7iWUZQ-179" target="DM1cx61J0RA44Y7iWUZQ-183">
          <mxGeometry relative="1" as="geometry" />
        </mxCell>
        <mxCell id="DM1cx61J0RA44Y7iWUZQ-176" value="h&lt;br&gt;" style="edgeLabel;html=1;align=center;verticalAlign=middle;resizable=0;points=[];" vertex="1" connectable="0" parent="DM1cx61J0RA44Y7iWUZQ-175">
          <mxGeometry x="-0.1915" y="-1" relative="1" as="geometry">
            <mxPoint as="offset" />
          </mxGeometry>
        </mxCell>
        <mxCell id="DM1cx61J0RA44Y7iWUZQ-177" style="edgeStyle=orthogonalEdgeStyle;rounded=0;orthogonalLoop=1;jettySize=auto;html=1;entryX=0.5;entryY=1;entryDx=0;entryDy=0;" edge="1" parent="1" source="DM1cx61J0RA44Y7iWUZQ-179" target="DM1cx61J0RA44Y7iWUZQ-181">
          <mxGeometry relative="1" as="geometry">
            <mxPoint x="861" y="266.16666666666674" as="targetPoint" />
          </mxGeometry>
        </mxCell>
        <mxCell id="DM1cx61J0RA44Y7iWUZQ-178" value="i" style="edgeLabel;html=1;align=center;verticalAlign=middle;resizable=0;points=[];" vertex="1" connectable="0" parent="DM1cx61J0RA44Y7iWUZQ-177">
          <mxGeometry x="-0.6793" y="-4" relative="1" as="geometry">
            <mxPoint as="offset" />
          </mxGeometry>
        </mxCell>
        <mxCell id="DM1cx61J0RA44Y7iWUZQ-179" value="m=0" style="rhombus;whiteSpace=wrap;html=1;fontSize=16;" vertex="1" parent="1">
          <mxGeometry x="672" y="303" width="100" height="100" as="geometry" />
        </mxCell>
        <mxCell id="DM1cx61J0RA44Y7iWUZQ-180" style="edgeStyle=orthogonalEdgeStyle;rounded=0;orthogonalLoop=1;jettySize=auto;html=1;entryX=0.5;entryY=0;entryDx=0;entryDy=0;" edge="1" parent="1" source="DM1cx61J0RA44Y7iWUZQ-181" target="DM1cx61J0RA44Y7iWUZQ-172">
          <mxGeometry relative="1" as="geometry" />
        </mxCell>
        <mxCell id="DM1cx61J0RA44Y7iWUZQ-181" value="Ki: hibaüzenet&amp;nbsp;" style="shape=parallelogram;perimeter=parallelogramPerimeter;whiteSpace=wrap;html=1;fixedSize=1;fontSize=16;" vertex="1" parent="1">
          <mxGeometry x="902" y="148" width="150" height="60" as="geometry" />
        </mxCell>
        <mxCell id="DM1cx61J0RA44Y7iWUZQ-182" value="" style="edgeStyle=none;curved=1;rounded=0;orthogonalLoop=1;jettySize=auto;html=1;fontSize=12;startSize=8;endSize=8;" edge="1" parent="1" source="DM1cx61J0RA44Y7iWUZQ-183" target="DM1cx61J0RA44Y7iWUZQ-185">
          <mxGeometry relative="1" as="geometry" />
        </mxCell>
        <mxCell id="DM1cx61J0RA44Y7iWUZQ-183" value="Be: b" style="shape=parallelogram;perimeter=parallelogramPerimeter;whiteSpace=wrap;html=1;fixedSize=1;fontSize=16;" vertex="1" parent="1">
          <mxGeometry x="647" y="457" width="150" height="60" as="geometry" />
        </mxCell>
        <mxCell id="DM1cx61J0RA44Y7iWUZQ-184" value="" style="edgeStyle=none;curved=1;rounded=0;orthogonalLoop=1;jettySize=auto;html=1;fontSize=12;startSize=8;endSize=8;" edge="1" parent="1" source="DM1cx61J0RA44Y7iWUZQ-185" target="DM1cx61J0RA44Y7iWUZQ-187">
          <mxGeometry relative="1" as="geometry" />
        </mxCell>
        <mxCell id="DM1cx61J0RA44Y7iWUZQ-185" value="Be:&amp;nbsp; ÉTK" style="shape=parallelogram;perimeter=parallelogramPerimeter;whiteSpace=wrap;html=1;fixedSize=1;fontSize=16;" vertex="1" parent="1">
          <mxGeometry x="647" y="556" width="150" height="60" as="geometry" />
        </mxCell>
        <mxCell id="DM1cx61J0RA44Y7iWUZQ-186" value="" style="edgeStyle=none;curved=1;rounded=0;orthogonalLoop=1;jettySize=auto;html=1;fontSize=12;startSize=8;endSize=8;" edge="1" parent="1" source="DM1cx61J0RA44Y7iWUZQ-187" target="DM1cx61J0RA44Y7iWUZQ-192">
          <mxGeometry relative="1" as="geometry" />
        </mxCell>
        <mxCell id="DM1cx61J0RA44Y7iWUZQ-187" value="ÉTV" style="shape=parallelogram;perimeter=parallelogramPerimeter;whiteSpace=wrap;html=1;fixedSize=1;fontSize=16;" vertex="1" parent="1">
          <mxGeometry x="647" y="678" width="150" height="60" as="geometry" />
        </mxCell>
        <mxCell id="DM1cx61J0RA44Y7iWUZQ-188" value="" style="edgeStyle=none;curved=1;rounded=0;orthogonalLoop=1;jettySize=auto;html=1;fontSize=12;startSize=8;endSize=8;" edge="1" parent="1" source="DM1cx61J0RA44Y7iWUZQ-192" target="DM1cx61J0RA44Y7iWUZQ-194">
          <mxGeometry relative="1" as="geometry" />
        </mxCell>
        <mxCell id="DM1cx61J0RA44Y7iWUZQ-189" value="i" style="edgeLabel;html=1;align=center;verticalAlign=middle;resizable=0;points=[];fontSize=16;" vertex="1" connectable="0" parent="DM1cx61J0RA44Y7iWUZQ-188">
          <mxGeometry x="0.1511" y="-3" relative="1" as="geometry">
            <mxPoint as="offset" />
          </mxGeometry>
        </mxCell>
        <mxCell id="DM1cx61J0RA44Y7iWUZQ-190" value="" style="edgeStyle=none;curved=1;rounded=0;orthogonalLoop=1;jettySize=auto;html=1;fontSize=12;startSize=8;endSize=8;" edge="1" parent="1" source="DM1cx61J0RA44Y7iWUZQ-192" target="DM1cx61J0RA44Y7iWUZQ-199">
          <mxGeometry relative="1" as="geometry" />
        </mxCell>
        <mxCell id="DM1cx61J0RA44Y7iWUZQ-191" value="h" style="edgeLabel;html=1;align=center;verticalAlign=middle;resizable=0;points=[];fontSize=16;" vertex="1" connectable="0" parent="DM1cx61J0RA44Y7iWUZQ-190">
          <mxGeometry x="-0.2055" y="3" relative="1" as="geometry">
            <mxPoint as="offset" />
          </mxGeometry>
        </mxCell>
        <mxCell id="DM1cx61J0RA44Y7iWUZQ-192" value="Etv=etk" style="rhombus;whiteSpace=wrap;html=1;fontSize=16;" vertex="1" parent="1">
          <mxGeometry x="672" y="778" width="100" height="100" as="geometry" />
        </mxCell>
        <mxCell id="DM1cx61J0RA44Y7iWUZQ-193" style="edgeStyle=orthogonalEdgeStyle;rounded=0;orthogonalLoop=1;jettySize=auto;html=1;entryX=0.5;entryY=0;entryDx=0;entryDy=0;" edge="1" parent="1" source="DM1cx61J0RA44Y7iWUZQ-194" target="DM1cx61J0RA44Y7iWUZQ-187">
          <mxGeometry relative="1" as="geometry">
            <Array as="points">
              <mxPoint x="949" y="642" />
              <mxPoint x="722" y="642" />
            </Array>
          </mxGeometry>
        </mxCell>
        <mxCell id="DM1cx61J0RA44Y7iWUZQ-194" value="Ki: hibás" style="shape=parallelogram;perimeter=parallelogramPerimeter;whiteSpace=wrap;html=1;fixedSize=1;fontSize=16;" vertex="1" parent="1">
          <mxGeometry x="876" y="800" width="150" height="60" as="geometry" />
        </mxCell>
        <mxCell id="DM1cx61J0RA44Y7iWUZQ-195" style="edgeStyle=none;curved=1;rounded=0;orthogonalLoop=1;jettySize=auto;html=1;entryX=0.5;entryY=0;entryDx=0;entryDy=0;fontSize=12;startSize=8;endSize=8;" edge="1" parent="1" source="DM1cx61J0RA44Y7iWUZQ-199" target="DM1cx61J0RA44Y7iWUZQ-200">
          <mxGeometry relative="1" as="geometry" />
        </mxCell>
        <mxCell id="DM1cx61J0RA44Y7iWUZQ-196" value="h" style="edgeLabel;html=1;align=center;verticalAlign=middle;resizable=0;points=[];fontSize=16;" vertex="1" connectable="0" parent="DM1cx61J0RA44Y7iWUZQ-195">
          <mxGeometry x="-0.3215" y="5" relative="1" as="geometry">
            <mxPoint as="offset" />
          </mxGeometry>
        </mxCell>
        <mxCell id="DM1cx61J0RA44Y7iWUZQ-197" value="" style="edgeStyle=none;curved=1;rounded=0;orthogonalLoop=1;jettySize=auto;html=1;fontSize=12;startSize=8;endSize=8;" edge="1" parent="1" source="DM1cx61J0RA44Y7iWUZQ-199" target="DM1cx61J0RA44Y7iWUZQ-202">
          <mxGeometry relative="1" as="geometry" />
        </mxCell>
        <mxCell id="DM1cx61J0RA44Y7iWUZQ-198" value="i" style="edgeLabel;html=1;align=center;verticalAlign=middle;resizable=0;points=[];fontSize=16;" vertex="1" connectable="0" parent="DM1cx61J0RA44Y7iWUZQ-197">
          <mxGeometry x="0.0312" y="-5" relative="1" as="geometry">
            <mxPoint x="-1" as="offset" />
          </mxGeometry>
        </mxCell>
        <mxCell id="DM1cx61J0RA44Y7iWUZQ-199" value="Etv&amp;gt;etk" style="rhombus;whiteSpace=wrap;html=1;fontSize=16;" vertex="1" parent="1">
          <mxGeometry x="672" y="922" width="100" height="100" as="geometry" />
        </mxCell>
        <mxCell id="DM1cx61J0RA44Y7iWUZQ-200" value="STOP" style="ellipse;whiteSpace=wrap;html=1;fontSize=16;" vertex="1" parent="1">
          <mxGeometry x="642" y="1078" width="160" height="80" as="geometry" />
        </mxCell>
        <mxCell id="DM1cx61J0RA44Y7iWUZQ-201" style="edgeStyle=orthogonalEdgeStyle;rounded=0;orthogonalLoop=1;jettySize=auto;html=1;entryX=0.5;entryY=0;entryDx=0;entryDy=0;" edge="1" parent="1" source="DM1cx61J0RA44Y7iWUZQ-202" target="DM1cx61J0RA44Y7iWUZQ-200">
          <mxGeometry relative="1" as="geometry">
            <Array as="points">
              <mxPoint x="962" y="1052" />
              <mxPoint x="722" y="1052" />
            </Array>
          </mxGeometry>
        </mxCell>
        <mxCell id="DM1cx61J0RA44Y7iWUZQ-202" value="Csere" style="whiteSpace=wrap;html=1;fontSize=16;" vertex="1" parent="1">
          <mxGeometry x="876" y="937" width="160" height="60" as="geometry" />
        </mxCell>
        <mxCell id="DM1cx61J0RA44Y7iWUZQ-203" value="" style="edgeStyle=none;curved=1;rounded=0;orthogonalLoop=1;jettySize=auto;html=1;fontSize=12;startSize=8;endSize=8;" edge="1" parent="1" source="DM1cx61J0RA44Y7iWUZQ-204" target="DM1cx61J0RA44Y7iWUZQ-207">
          <mxGeometry relative="1" as="geometry" />
        </mxCell>
        <mxCell id="DM1cx61J0RA44Y7iWUZQ-204" value="START" style="ellipse;whiteSpace=wrap;html=1;fontSize=16;" vertex="1" parent="1">
          <mxGeometry x="1140" y="78.5" width="160" height="80" as="geometry" />
        </mxCell>
        <mxCell id="DM1cx61J0RA44Y7iWUZQ-205" value="Csere" style="text;html=1;strokeColor=none;fillColor=none;align=center;verticalAlign=middle;whiteSpace=wrap;rounded=0;fontSize=16;" vertex="1" parent="1">
          <mxGeometry x="1063" y="50" width="60" height="137" as="geometry" />
        </mxCell>
        <mxCell id="DM1cx61J0RA44Y7iWUZQ-206" value="" style="edgeStyle=none;curved=1;rounded=0;orthogonalLoop=1;jettySize=auto;html=1;fontSize=12;startSize=8;endSize=8;" edge="1" parent="1" source="DM1cx61J0RA44Y7iWUZQ-207" target="DM1cx61J0RA44Y7iWUZQ-209">
          <mxGeometry relative="1" as="geometry" />
        </mxCell>
        <mxCell id="DM1cx61J0RA44Y7iWUZQ-207" value="S = etk" style="whiteSpace=wrap;html=1;fontSize=16;" vertex="1" parent="1">
          <mxGeometry x="1140" y="225.5" width="160" height="60" as="geometry" />
        </mxCell>
        <mxCell id="DM1cx61J0RA44Y7iWUZQ-208" value="" style="edgeStyle=none;curved=1;rounded=0;orthogonalLoop=1;jettySize=auto;html=1;fontSize=12;startSize=8;endSize=8;" edge="1" parent="1" source="DM1cx61J0RA44Y7iWUZQ-209" target="DM1cx61J0RA44Y7iWUZQ-211">
          <mxGeometry relative="1" as="geometry" />
        </mxCell>
        <mxCell id="DM1cx61J0RA44Y7iWUZQ-209" value="etk = etv" style="whiteSpace=wrap;html=1;fontSize=16;" vertex="1" parent="1">
          <mxGeometry x="1135" y="337.5" width="160" height="60" as="geometry" />
        </mxCell>
        <mxCell id="DM1cx61J0RA44Y7iWUZQ-210" style="edgeStyle=none;curved=1;rounded=0;orthogonalLoop=1;jettySize=auto;html=1;fontSize=12;startSize=8;endSize=8;" edge="1" parent="1" source="DM1cx61J0RA44Y7iWUZQ-211" target="DM1cx61J0RA44Y7iWUZQ-212">
          <mxGeometry relative="1" as="geometry" />
        </mxCell>
        <mxCell id="DM1cx61J0RA44Y7iWUZQ-211" value="etv = s" style="whiteSpace=wrap;html=1;fontSize=16;" vertex="1" parent="1">
          <mxGeometry x="1135" y="454.5" width="160" height="60" as="geometry" />
        </mxCell>
        <mxCell id="DM1cx61J0RA44Y7iWUZQ-212" value="STOP" style="ellipse;whiteSpace=wrap;html=1;fontSize=16;" vertex="1" parent="1">
          <mxGeometry x="1140" y="565.5" width="150" height="80" as="geometry" />
        </mxCell>
        <mxCell id="DM1cx61J0RA44Y7iWUZQ-213" value="Kiíras" style="text;html=1;strokeColor=none;fillColor=none;align=center;verticalAlign=middle;whiteSpace=wrap;rounded=0;fontSize=16;" vertex="1" parent="1">
          <mxGeometry x="226" y="1315" width="60" height="30" as="geometry" />
        </mxCell>
        <mxCell id="DM1cx61J0RA44Y7iWUZQ-214" value="" style="edgeStyle=none;curved=1;rounded=0;orthogonalLoop=1;jettySize=auto;html=1;fontSize=12;startSize=8;endSize=8;exitX=0.5;exitY=1;exitDx=0;exitDy=0;" edge="1" parent="1" source="DM1cx61J0RA44Y7iWUZQ-215" target="DM1cx61J0RA44Y7iWUZQ-217">
          <mxGeometry relative="1" as="geometry" />
        </mxCell>
        <mxCell id="DM1cx61J0RA44Y7iWUZQ-215" value="START" style="ellipse;whiteSpace=wrap;html=1;fontSize=16;" vertex="1" parent="1">
          <mxGeometry x="300" y="1290" width="160" height="80" as="geometry" />
        </mxCell>
        <mxCell id="DM1cx61J0RA44Y7iWUZQ-216" value="" style="edgeStyle=none;curved=1;rounded=0;orthogonalLoop=1;jettySize=auto;html=1;fontSize=12;startSize=8;endSize=8;" edge="1" parent="1" source="DM1cx61J0RA44Y7iWUZQ-217" target="DM1cx61J0RA44Y7iWUZQ-222">
          <mxGeometry relative="1" as="geometry" />
        </mxCell>
        <mxCell id="DM1cx61J0RA44Y7iWUZQ-217" value="Ki: &quot;f(x)=&quot;" style="shape=parallelogram;perimeter=parallelogramPerimeter;whiteSpace=wrap;html=1;fixedSize=1;fontSize=16;" vertex="1" parent="1">
          <mxGeometry x="300" y="1415.5" width="160" height="60" as="geometry" />
        </mxCell>
        <mxCell id="DM1cx61J0RA44Y7iWUZQ-218" value="" style="edgeStyle=none;curved=1;rounded=0;orthogonalLoop=1;jettySize=auto;html=1;fontSize=12;startSize=8;endSize=8;" edge="1" parent="1" source="DM1cx61J0RA44Y7iWUZQ-222" target="DM1cx61J0RA44Y7iWUZQ-224">
          <mxGeometry relative="1" as="geometry" />
        </mxCell>
        <mxCell id="DM1cx61J0RA44Y7iWUZQ-219" value="i" style="edgeLabel;html=1;align=center;verticalAlign=middle;resizable=0;points=[];fontSize=16;" vertex="1" connectable="0" parent="DM1cx61J0RA44Y7iWUZQ-218">
          <mxGeometry x="0.1165" y="-1" relative="1" as="geometry">
            <mxPoint as="offset" />
          </mxGeometry>
        </mxCell>
        <mxCell id="DM1cx61J0RA44Y7iWUZQ-220" value="" style="edgeStyle=none;curved=1;rounded=0;orthogonalLoop=1;jettySize=auto;html=1;fontSize=12;startSize=8;endSize=8;" edge="1" parent="1" source="DM1cx61J0RA44Y7iWUZQ-222" target="DM1cx61J0RA44Y7iWUZQ-229">
          <mxGeometry relative="1" as="geometry" />
        </mxCell>
        <mxCell id="DM1cx61J0RA44Y7iWUZQ-221" value="h" style="edgeLabel;html=1;align=center;verticalAlign=middle;resizable=0;points=[];fontSize=16;" vertex="1" connectable="0" parent="DM1cx61J0RA44Y7iWUZQ-220">
          <mxGeometry x="-0.0276" y="-10" relative="1" as="geometry">
            <mxPoint as="offset" />
          </mxGeometry>
        </mxCell>
        <mxCell id="DM1cx61J0RA44Y7iWUZQ-222" value="m=-1" style="rhombus;whiteSpace=wrap;html=1;fontSize=16;" vertex="1" parent="1">
          <mxGeometry x="325" y="1522.5" width="110" height="110" as="geometry" />
        </mxCell>
        <mxCell id="DM1cx61J0RA44Y7iWUZQ-223" style="edgeStyle=orthogonalEdgeStyle;rounded=0;orthogonalLoop=1;jettySize=auto;html=1;entryX=0.5;entryY=0;entryDx=0;entryDy=0;" edge="1" parent="1">
          <mxGeometry relative="1" as="geometry">
            <mxPoint x="628.9848484848485" y="1577.5454545454545" as="sourcePoint" />
            <mxPoint x="380" y="1958.5" as="targetPoint" />
            <Array as="points">
              <mxPoint x="669" y="1577" />
              <mxPoint x="669" y="1915" />
              <mxPoint x="380" y="1915" />
            </Array>
          </mxGeometry>
        </mxCell>
        <mxCell id="DM1cx61J0RA44Y7iWUZQ-224" value="&amp;amp;&quot;-x&quot;" style="shape=parallelogram;perimeter=parallelogramPerimeter;whiteSpace=wrap;html=1;fixedSize=1;fontSize=16;" vertex="1" parent="1">
          <mxGeometry x="479" y="1547.5" width="160" height="60" as="geometry" />
        </mxCell>
        <mxCell id="DM1cx61J0RA44Y7iWUZQ-225" value="" style="edgeStyle=none;curved=1;rounded=0;orthogonalLoop=1;jettySize=auto;html=1;fontSize=12;startSize=8;endSize=8;" edge="1" parent="1" source="DM1cx61J0RA44Y7iWUZQ-229" target="DM1cx61J0RA44Y7iWUZQ-231">
          <mxGeometry relative="1" as="geometry" />
        </mxCell>
        <mxCell id="DM1cx61J0RA44Y7iWUZQ-226" value="i" style="edgeLabel;html=1;align=center;verticalAlign=middle;resizable=0;points=[];fontSize=16;" vertex="1" connectable="0" parent="DM1cx61J0RA44Y7iWUZQ-225">
          <mxGeometry x="-0.2141" y="-2" relative="1" as="geometry">
            <mxPoint as="offset" />
          </mxGeometry>
        </mxCell>
        <mxCell id="DM1cx61J0RA44Y7iWUZQ-227" value="" style="edgeStyle=none;curved=1;rounded=0;orthogonalLoop=1;jettySize=auto;html=1;fontSize=12;startSize=8;endSize=8;" edge="1" parent="1" source="DM1cx61J0RA44Y7iWUZQ-229" target="DM1cx61J0RA44Y7iWUZQ-170">
          <mxGeometry relative="1" as="geometry" />
        </mxCell>
        <mxCell id="DM1cx61J0RA44Y7iWUZQ-228" value="h" style="edgeLabel;html=1;align=center;verticalAlign=middle;resizable=0;points=[];fontSize=16;" vertex="1" connectable="0" parent="DM1cx61J0RA44Y7iWUZQ-227">
          <mxGeometry x="-0.6576" y="10" relative="1" as="geometry">
            <mxPoint y="1" as="offset" />
          </mxGeometry>
        </mxCell>
        <mxCell id="DM1cx61J0RA44Y7iWUZQ-229" value="m=1" style="rhombus;whiteSpace=wrap;html=1;fontSize=16;" vertex="1" parent="1">
          <mxGeometry x="325" y="1664" width="110" height="110" as="geometry" />
        </mxCell>
        <mxCell id="DM1cx61J0RA44Y7iWUZQ-230" style="edgeStyle=orthogonalEdgeStyle;rounded=0;orthogonalLoop=1;jettySize=auto;html=1;entryX=0.5;entryY=0;entryDx=0;entryDy=0;" edge="1" parent="1" source="DM1cx61J0RA44Y7iWUZQ-231" target="DM1cx61J0RA44Y7iWUZQ-236">
          <mxGeometry relative="1" as="geometry">
            <Array as="points">
              <mxPoint x="544" y="1915" />
              <mxPoint x="380" y="1915" />
            </Array>
          </mxGeometry>
        </mxCell>
        <mxCell id="DM1cx61J0RA44Y7iWUZQ-231" value="&amp;amp;&quot;&quot;x&quot;" style="shape=parallelogram;perimeter=parallelogramPerimeter;whiteSpace=wrap;html=1;fixedSize=1;fontSize=16;" vertex="1" parent="1">
          <mxGeometry x="462" y="1683" width="160" height="60" as="geometry" />
        </mxCell>
        <mxCell id="DM1cx61J0RA44Y7iWUZQ-232" value="" style="edgeStyle=none;curved=1;rounded=0;orthogonalLoop=1;jettySize=auto;html=1;fontSize=12;startSize=8;endSize=8;" edge="1" parent="1" source="DM1cx61J0RA44Y7iWUZQ-236" target="DM1cx61J0RA44Y7iWUZQ-241">
          <mxGeometry relative="1" as="geometry" />
        </mxCell>
        <mxCell id="DM1cx61J0RA44Y7iWUZQ-233" value="h" style="edgeLabel;html=1;align=center;verticalAlign=middle;resizable=0;points=[];fontSize=16;" vertex="1" connectable="0" parent="DM1cx61J0RA44Y7iWUZQ-232">
          <mxGeometry x="0.3677" y="8" relative="1" as="geometry">
            <mxPoint x="1" as="offset" />
          </mxGeometry>
        </mxCell>
        <mxCell id="DM1cx61J0RA44Y7iWUZQ-234" style="edgeStyle=none;curved=1;rounded=0;orthogonalLoop=1;jettySize=auto;html=1;entryX=0.5;entryY=0;entryDx=0;entryDy=0;fontSize=12;startSize=8;endSize=8;" edge="1" parent="1" source="DM1cx61J0RA44Y7iWUZQ-236" target="DM1cx61J0RA44Y7iWUZQ-247">
          <mxGeometry relative="1" as="geometry" />
        </mxCell>
        <mxCell id="DM1cx61J0RA44Y7iWUZQ-235" value="i&lt;br&gt;" style="edgeLabel;html=1;align=center;verticalAlign=middle;resizable=0;points=[];" vertex="1" connectable="0" parent="DM1cx61J0RA44Y7iWUZQ-234">
          <mxGeometry x="-0.2728" y="2" relative="1" as="geometry">
            <mxPoint as="offset" />
          </mxGeometry>
        </mxCell>
        <mxCell id="DM1cx61J0RA44Y7iWUZQ-236" value="b=0" style="rhombus;whiteSpace=wrap;html=1;fontSize=16;" vertex="1" parent="1">
          <mxGeometry x="325" y="1958.5" width="110" height="110" as="geometry" />
        </mxCell>
        <mxCell id="DM1cx61J0RA44Y7iWUZQ-237" value="" style="edgeStyle=none;curved=1;rounded=0;orthogonalLoop=1;jettySize=auto;html=1;fontSize=12;startSize=8;endSize=8;" edge="1" parent="1" source="DM1cx61J0RA44Y7iWUZQ-241" target="DM1cx61J0RA44Y7iWUZQ-243">
          <mxGeometry relative="1" as="geometry" />
        </mxCell>
        <mxCell id="DM1cx61J0RA44Y7iWUZQ-238" value="h" style="edgeLabel;html=1;align=center;verticalAlign=middle;resizable=0;points=[];fontSize=16;" vertex="1" connectable="0" parent="DM1cx61J0RA44Y7iWUZQ-237">
          <mxGeometry x="-0.3064" y="2" relative="1" as="geometry">
            <mxPoint as="offset" />
          </mxGeometry>
        </mxCell>
        <mxCell id="DM1cx61J0RA44Y7iWUZQ-239" value="" style="edgeStyle=none;curved=1;rounded=0;orthogonalLoop=1;jettySize=auto;html=1;fontSize=12;startSize=8;endSize=8;" edge="1" parent="1" source="DM1cx61J0RA44Y7iWUZQ-241" target="DM1cx61J0RA44Y7iWUZQ-245">
          <mxGeometry relative="1" as="geometry" />
        </mxCell>
        <mxCell id="DM1cx61J0RA44Y7iWUZQ-240" value="i" style="edgeLabel;html=1;align=center;verticalAlign=middle;resizable=0;points=[];" vertex="1" connectable="0" parent="DM1cx61J0RA44Y7iWUZQ-239">
          <mxGeometry x="-0.2961" y="-2" relative="1" as="geometry">
            <mxPoint y="1" as="offset" />
          </mxGeometry>
        </mxCell>
        <mxCell id="DM1cx61J0RA44Y7iWUZQ-241" value="b&amp;gt;" style="rhombus;whiteSpace=wrap;html=1;fontSize=16;" vertex="1" parent="1">
          <mxGeometry x="475" y="1958.5" width="110" height="110" as="geometry" />
        </mxCell>
        <mxCell id="DM1cx61J0RA44Y7iWUZQ-242" style="edgeStyle=orthogonalEdgeStyle;rounded=0;orthogonalLoop=1;jettySize=auto;html=1;entryX=0.5;entryY=0;entryDx=0;entryDy=0;" edge="1" parent="1" source="DM1cx61J0RA44Y7iWUZQ-243" target="DM1cx61J0RA44Y7iWUZQ-247">
          <mxGeometry relative="1" as="geometry">
            <Array as="points">
              <mxPoint x="738" y="2247" />
              <mxPoint x="380" y="2247" />
            </Array>
          </mxGeometry>
        </mxCell>
        <mxCell id="DM1cx61J0RA44Y7iWUZQ-243" value="&amp;amp;b" style="shape=parallelogram;perimeter=parallelogramPerimeter;whiteSpace=wrap;html=1;fixedSize=1;fontSize=16;" vertex="1" parent="1">
          <mxGeometry x="658" y="1978.5" width="160" height="60" as="geometry" />
        </mxCell>
        <mxCell id="DM1cx61J0RA44Y7iWUZQ-244" style="edgeStyle=orthogonalEdgeStyle;rounded=0;orthogonalLoop=1;jettySize=auto;html=1;entryX=0.5;entryY=0;entryDx=0;entryDy=0;" edge="1" parent="1" source="DM1cx61J0RA44Y7iWUZQ-245" target="DM1cx61J0RA44Y7iWUZQ-247">
          <mxGeometry relative="1" as="geometry" />
        </mxCell>
        <mxCell id="DM1cx61J0RA44Y7iWUZQ-245" value="&amp;amp;&quot;+&quot;&amp;amp;b" style="shape=parallelogram;perimeter=parallelogramPerimeter;whiteSpace=wrap;html=1;fixedSize=1;fontSize=16;" vertex="1" parent="1">
          <mxGeometry x="450" y="2114.5" width="160" height="60" as="geometry" />
        </mxCell>
        <mxCell id="DM1cx61J0RA44Y7iWUZQ-246" style="edgeStyle=none;curved=1;rounded=0;orthogonalLoop=1;jettySize=auto;html=1;fontSize=12;startSize=8;endSize=8;entryX=0.5;entryY=0;entryDx=0;entryDy=0;" edge="1" parent="1" source="DM1cx61J0RA44Y7iWUZQ-247" target="DM1cx61J0RA44Y7iWUZQ-248">
          <mxGeometry relative="1" as="geometry">
            <mxPoint x="377" y="2439.4999999999995" as="targetPoint" />
          </mxGeometry>
        </mxCell>
        <mxCell id="DM1cx61J0RA44Y7iWUZQ-247" value="&amp;amp;&quot;függvény &lt;br&gt;grafikaja és jellemzői:&quot;" style="shape=parallelogram;perimeter=parallelogramPerimeter;whiteSpace=wrap;html=1;fixedSize=1;fontSize=16;" vertex="1" parent="1">
          <mxGeometry x="300" y="2318.5" width="160" height="60" as="geometry" />
        </mxCell>
        <mxCell id="DM1cx61J0RA44Y7iWUZQ-248" value="STOP" style="ellipse;whiteSpace=wrap;html=1;fontSize=16;" vertex="1" parent="1">
          <mxGeometry x="300" y="2439" width="160" height="80" as="geometry" />
        </mxCell>
        <mxCell id="DM1cx61J0RA44Y7iWUZQ-249" value="Bekérés" style="text;html=1;strokeColor=none;fillColor=none;align=center;verticalAlign=middle;whiteSpace=wrap;rounded=0;fontSize=16;" vertex="1" parent="1">
          <mxGeometry x="555" y="107" width="60" height="30" as="geometry" />
        </mxCell>
        <mxCell id="DM1cx61J0RA44Y7iWUZQ-250" value="" style="edgeStyle=orthogonalEdgeStyle;rounded=0;orthogonalLoop=1;jettySize=auto;html=1;" edge="1" parent="1" source="DM1cx61J0RA44Y7iWUZQ-251" target="DM1cx61J0RA44Y7iWUZQ-257">
          <mxGeometry relative="1" as="geometry" />
        </mxCell>
        <mxCell id="DM1cx61J0RA44Y7iWUZQ-251" value="Ki: Üdvözlés" style="shape=parallelogram;perimeter=parallelogramPerimeter;whiteSpace=wrap;html=1;fixedSize=1;fontSize=16;" vertex="1" parent="1">
          <mxGeometry x="304" y="216" width="160" height="60" as="geometry" />
        </mxCell>
        <mxCell id="DM1cx61J0RA44Y7iWUZQ-252" value="" style="edgeStyle=none;curved=1;rounded=0;orthogonalLoop=1;jettySize=auto;html=1;fontSize=12;startSize=8;endSize=8;" edge="1" parent="1" source="DM1cx61J0RA44Y7iWUZQ-253" target="DM1cx61J0RA44Y7iWUZQ-251">
          <mxGeometry relative="1" as="geometry" />
        </mxCell>
        <mxCell id="DM1cx61J0RA44Y7iWUZQ-253" value="START" style="ellipse;whiteSpace=wrap;html=1;fontSize=16;" vertex="1" parent="1">
          <mxGeometry x="304" y="78" width="160" height="80" as="geometry" />
        </mxCell>
        <mxCell id="DM1cx61J0RA44Y7iWUZQ-254" value="STOP" style="ellipse;whiteSpace=wrap;html=1;fontSize=16;" vertex="1" parent="1">
          <mxGeometry x="305" y="1138" width="160" height="80" as="geometry" />
        </mxCell>
        <mxCell id="DM1cx61J0RA44Y7iWUZQ-255" value="Főprogram" style="text;html=1;strokeColor=none;fillColor=none;align=center;verticalAlign=middle;whiteSpace=wrap;rounded=0;fontSize=16;" vertex="1" parent="1">
          <mxGeometry x="212" y="103" width="60" height="30" as="geometry" />
        </mxCell>
        <mxCell id="DM1cx61J0RA44Y7iWUZQ-256" value="" style="edgeStyle=orthogonalEdgeStyle;rounded=0;orthogonalLoop=1;jettySize=auto;html=1;" edge="1" parent="1" source="DM1cx61J0RA44Y7iWUZQ-257" target="DM1cx61J0RA44Y7iWUZQ-259">
          <mxGeometry relative="1" as="geometry" />
        </mxCell>
        <mxCell id="DM1cx61J0RA44Y7iWUZQ-257" value="Bekérés" style="whiteSpace=wrap;html=1;fontSize=16;" vertex="1" parent="1">
          <mxGeometry x="304" y="356" width="160" height="60" as="geometry" />
        </mxCell>
        <mxCell id="DM1cx61J0RA44Y7iWUZQ-258" value="" style="edgeStyle=orthogonalEdgeStyle;rounded=0;orthogonalLoop=1;jettySize=auto;html=1;" edge="1" parent="1" source="DM1cx61J0RA44Y7iWUZQ-259" target="DM1cx61J0RA44Y7iWUZQ-261">
          <mxGeometry relative="1" as="geometry" />
        </mxCell>
        <mxCell id="DM1cx61J0RA44Y7iWUZQ-259" value="Függvény kiírás" style="whiteSpace=wrap;html=1;fontSize=16;" vertex="1" parent="1">
          <mxGeometry x="304" y="496" width="160" height="60" as="geometry" />
        </mxCell>
        <mxCell id="DM1cx61J0RA44Y7iWUZQ-260" value="" style="edgeStyle=orthogonalEdgeStyle;rounded=0;orthogonalLoop=1;jettySize=auto;html=1;" edge="1" parent="1" source="DM1cx61J0RA44Y7iWUZQ-261" target="DM1cx61J0RA44Y7iWUZQ-263">
          <mxGeometry relative="1" as="geometry" />
        </mxCell>
        <mxCell id="DM1cx61J0RA44Y7iWUZQ-261" value="Táblázat kiírás" style="whiteSpace=wrap;html=1;fontSize=16;" vertex="1" parent="1">
          <mxGeometry x="304" y="636" width="160" height="60" as="geometry" />
        </mxCell>
        <mxCell id="DM1cx61J0RA44Y7iWUZQ-262" value="" style="edgeStyle=orthogonalEdgeStyle;rounded=0;orthogonalLoop=1;jettySize=auto;html=1;" edge="1" parent="1" source="DM1cx61J0RA44Y7iWUZQ-263" target="DM1cx61J0RA44Y7iWUZQ-268">
          <mxGeometry relative="1" as="geometry" />
        </mxCell>
        <mxCell id="DM1cx61J0RA44Y7iWUZQ-263" value="Fügvény rajz" style="whiteSpace=wrap;html=1;fontSize=16;" vertex="1" parent="1">
          <mxGeometry x="304" y="771" width="160" height="60" as="geometry" />
        </mxCell>
        <mxCell id="DM1cx61J0RA44Y7iWUZQ-264" value="" style="edgeStyle=orthogonalEdgeStyle;rounded=0;orthogonalLoop=1;jettySize=auto;html=1;entryX=0.5;entryY=0;entryDx=0;entryDy=0;" edge="1" parent="1" source="DM1cx61J0RA44Y7iWUZQ-268" target="DM1cx61J0RA44Y7iWUZQ-270">
          <mxGeometry relative="1" as="geometry">
            <mxPoint x="379" y="1040" as="targetPoint" />
          </mxGeometry>
        </mxCell>
        <mxCell id="DM1cx61J0RA44Y7iWUZQ-265" value="h" style="edgeLabel;html=1;align=center;verticalAlign=middle;resizable=0;points=[];" vertex="1" connectable="0" parent="DM1cx61J0RA44Y7iWUZQ-264">
          <mxGeometry x="-0.149" y="-2" relative="1" as="geometry">
            <mxPoint y="-1" as="offset" />
          </mxGeometry>
        </mxCell>
        <mxCell id="DM1cx61J0RA44Y7iWUZQ-266" style="edgeStyle=orthogonalEdgeStyle;rounded=0;orthogonalLoop=1;jettySize=auto;html=1;entryX=0.5;entryY=0;entryDx=0;entryDy=0;" edge="1" parent="1" source="DM1cx61J0RA44Y7iWUZQ-268" target="DM1cx61J0RA44Y7iWUZQ-257">
          <mxGeometry relative="1" as="geometry">
            <Array as="points">
              <mxPoint x="213" y="946" />
              <mxPoint x="213" y="315" />
              <mxPoint x="384" y="315" />
            </Array>
          </mxGeometry>
        </mxCell>
        <mxCell id="DM1cx61J0RA44Y7iWUZQ-267" value="i" style="edgeLabel;html=1;align=center;verticalAlign=middle;resizable=0;points=[];" vertex="1" connectable="0" parent="DM1cx61J0RA44Y7iWUZQ-266">
          <mxGeometry x="-0.885" y="1" relative="1" as="geometry">
            <mxPoint as="offset" />
          </mxGeometry>
        </mxCell>
        <mxCell id="DM1cx61J0RA44Y7iWUZQ-268" value="Folytatja?" style="rhombus;whiteSpace=wrap;html=1;fontSize=16;" vertex="1" parent="1">
          <mxGeometry x="335" y="901" width="100" height="100" as="geometry" />
        </mxCell>
        <mxCell id="DM1cx61J0RA44Y7iWUZQ-269" style="edgeStyle=orthogonalEdgeStyle;rounded=0;orthogonalLoop=1;jettySize=auto;html=1;exitX=0.5;exitY=1;exitDx=0;exitDy=0;" edge="1" parent="1" source="DM1cx61J0RA44Y7iWUZQ-270" target="DM1cx61J0RA44Y7iWUZQ-254">
          <mxGeometry relative="1" as="geometry">
            <mxPoint x="379" y="1100" as="sourcePoint" />
          </mxGeometry>
        </mxCell>
        <mxCell id="DM1cx61J0RA44Y7iWUZQ-270" value="Ki: Elköszönés" style="rounded=0;whiteSpace=wrap;html=1;" vertex="1" parent="1">
          <mxGeometry x="304" y="1046" width="160" height="60" as="geometry" />
        </mxCell>
        <mxCell id="DM1cx61J0RA44Y7iWUZQ-271" value="Táblázat rajzolás" style="text;html=1;strokeColor=none;fillColor=none;align=center;verticalAlign=middle;whiteSpace=wrap;rounded=0;" vertex="1" parent="1">
          <mxGeometry x="900" y="1227" width="60" height="30" as="geometry" />
        </mxCell>
        <mxCell id="DM1cx61J0RA44Y7iWUZQ-272" value="" style="edgeStyle=orthogonalEdgeStyle;rounded=0;orthogonalLoop=1;jettySize=auto;html=1;" edge="1" parent="1" source="DM1cx61J0RA44Y7iWUZQ-273" target="DM1cx61J0RA44Y7iWUZQ-275">
          <mxGeometry relative="1" as="geometry" />
        </mxCell>
        <mxCell id="DM1cx61J0RA44Y7iWUZQ-273" value="START" style="ellipse;whiteSpace=wrap;html=1;fontSize=16;" vertex="1" parent="1">
          <mxGeometry x="1701" y="1230" width="160" height="80" as="geometry" />
        </mxCell>
        <mxCell id="DM1cx61J0RA44Y7iWUZQ-274" value="" style="edgeStyle=orthogonalEdgeStyle;rounded=0;orthogonalLoop=1;jettySize=auto;html=1;entryX=0.5;entryY=0;entryDx=0;entryDy=0;" edge="1" parent="1" source="DM1cx61J0RA44Y7iWUZQ-275" target="DM1cx61J0RA44Y7iWUZQ-277">
          <mxGeometry relative="1" as="geometry">
            <mxPoint x="1781" y="1476" as="targetPoint" />
          </mxGeometry>
        </mxCell>
        <mxCell id="DM1cx61J0RA44Y7iWUZQ-275" value="&quot;ÉT: y€R | {&quot;&amp;amp;ÉTk&lt;br&gt;&amp;amp;&quot;;&quot;&amp;amp;ÉTv&amp;amp;&quot;}&quot;" style="shape=parallelogram;perimeter=parallelogramPerimeter;whiteSpace=wrap;html=1;fixedSize=1;fontSize=16;" vertex="1" parent="1">
          <mxGeometry x="1701" y="1362" width="160" height="60" as="geometry" />
        </mxCell>
        <mxCell id="DM1cx61J0RA44Y7iWUZQ-276" value="" style="edgeStyle=orthogonalEdgeStyle;rounded=0;orthogonalLoop=1;jettySize=auto;html=1;" edge="1" parent="1" source="DM1cx61J0RA44Y7iWUZQ-277" target="DM1cx61J0RA44Y7iWUZQ-290">
          <mxGeometry relative="1" as="geometry" />
        </mxCell>
        <mxCell id="DM1cx61J0RA44Y7iWUZQ-277" value="&quot;ÉK : y€R I{&quot;&amp;amp;m*ÉTk+b&lt;br&gt;&amp;amp;&quot;;&quot;&amp;amp;m*ÉTv+b&amp;amp;&quot;}&quot;" style="shape=parallelogram;perimeter=parallelogramPerimeter;whiteSpace=wrap;html=1;fixedSize=1;fontSize=16;" vertex="1" parent="1">
          <mxGeometry x="1701" y="1477" width="160" height="60" as="geometry" />
        </mxCell>
        <mxCell id="DM1cx61J0RA44Y7iWUZQ-278" value="Stop" style="ellipse;whiteSpace=wrap;html=1;" vertex="1" parent="1">
          <mxGeometry x="1701" y="2274" width="160" height="80" as="geometry" />
        </mxCell>
        <mxCell id="DM1cx61J0RA44Y7iWUZQ-279" value="Jellemzés" style="text;html=1;strokeColor=none;fillColor=none;align=center;verticalAlign=middle;whiteSpace=wrap;rounded=0;" vertex="1" parent="1">
          <mxGeometry x="1613" y="1255" width="60" height="30" as="geometry" />
        </mxCell>
        <mxCell id="DM1cx61J0RA44Y7iWUZQ-280" value="" style="edgeStyle=orthogonalEdgeStyle;rounded=0;orthogonalLoop=1;jettySize=auto;html=1;entryX=0;entryY=0.5;entryDx=0;entryDy=0;" edge="1" parent="1" source="DM1cx61J0RA44Y7iWUZQ-284" target="DM1cx61J0RA44Y7iWUZQ-288">
          <mxGeometry relative="1" as="geometry">
            <mxPoint x="1911" y="1712" as="targetPoint" />
          </mxGeometry>
        </mxCell>
        <mxCell id="DM1cx61J0RA44Y7iWUZQ-281" value="h" style="edgeLabel;html=1;align=center;verticalAlign=middle;resizable=0;points=[];" vertex="1" connectable="0" parent="DM1cx61J0RA44Y7iWUZQ-280">
          <mxGeometry x="-0.087" y="1" relative="1" as="geometry">
            <mxPoint as="offset" />
          </mxGeometry>
        </mxCell>
        <mxCell id="DM1cx61J0RA44Y7iWUZQ-282" value="" style="edgeStyle=orthogonalEdgeStyle;rounded=0;orthogonalLoop=1;jettySize=auto;html=1;entryX=1;entryY=0.5;entryDx=0;entryDy=0;" edge="1" parent="1" source="DM1cx61J0RA44Y7iWUZQ-284" target="DM1cx61J0RA44Y7iWUZQ-286">
          <mxGeometry relative="1" as="geometry">
            <mxPoint x="1651" y="1712" as="targetPoint" />
          </mxGeometry>
        </mxCell>
        <mxCell id="DM1cx61J0RA44Y7iWUZQ-283" value="i" style="edgeLabel;html=1;align=center;verticalAlign=middle;resizable=0;points=[];" vertex="1" connectable="0" parent="DM1cx61J0RA44Y7iWUZQ-282">
          <mxGeometry x="-0.4952" y="-2" relative="1" as="geometry">
            <mxPoint as="offset" />
          </mxGeometry>
        </mxCell>
        <mxCell id="DM1cx61J0RA44Y7iWUZQ-284" value="m&amp;gt;0" style="rhombus;whiteSpace=wrap;html=1;fontSize=16;" vertex="1" parent="1">
          <mxGeometry x="1726" y="1693" width="110" height="110" as="geometry" />
        </mxCell>
        <mxCell id="DM1cx61J0RA44Y7iWUZQ-285" style="edgeStyle=orthogonalEdgeStyle;rounded=0;orthogonalLoop=1;jettySize=auto;html=1;entryX=0.5;entryY=0;entryDx=0;entryDy=0;" edge="1" parent="1" source="DM1cx61J0RA44Y7iWUZQ-286" target="DM1cx61J0RA44Y7iWUZQ-292">
          <mxGeometry relative="1" as="geometry">
            <Array as="points">
              <mxPoint x="1586" y="1849" />
              <mxPoint x="1781" y="1849" />
            </Array>
          </mxGeometry>
        </mxCell>
        <mxCell id="DM1cx61J0RA44Y7iWUZQ-286" value="&amp;amp;&quot;növ&quot;" style="shape=parallelogram;perimeter=parallelogramPerimeter;whiteSpace=wrap;html=1;fixedSize=1;fontSize=16;" vertex="1" parent="1">
          <mxGeometry x="1506" y="1718" width="160" height="60" as="geometry" />
        </mxCell>
        <mxCell id="DM1cx61J0RA44Y7iWUZQ-287" style="edgeStyle=orthogonalEdgeStyle;rounded=0;orthogonalLoop=1;jettySize=auto;html=1;" edge="1" parent="1" source="DM1cx61J0RA44Y7iWUZQ-288" target="DM1cx61J0RA44Y7iWUZQ-292">
          <mxGeometry relative="1" as="geometry">
            <Array as="points">
              <mxPoint x="1986" y="1849" />
              <mxPoint x="1781" y="1849" />
            </Array>
          </mxGeometry>
        </mxCell>
        <mxCell id="DM1cx61J0RA44Y7iWUZQ-288" value="&amp;amp;&quot;csökk&quot;" style="shape=parallelogram;perimeter=parallelogramPerimeter;whiteSpace=wrap;html=1;fixedSize=1;fontSize=16;" vertex="1" parent="1">
          <mxGeometry x="1906" y="1718" width="160" height="60" as="geometry" />
        </mxCell>
        <mxCell id="DM1cx61J0RA44Y7iWUZQ-289" style="edgeStyle=orthogonalEdgeStyle;rounded=0;orthogonalLoop=1;jettySize=auto;html=1;" edge="1" parent="1" source="DM1cx61J0RA44Y7iWUZQ-290" target="DM1cx61J0RA44Y7iWUZQ-284">
          <mxGeometry relative="1" as="geometry" />
        </mxCell>
        <mxCell id="DM1cx61J0RA44Y7iWUZQ-290" value="&amp;amp;&quot;Monotonitás: &quot;" style="shape=parallelogram;perimeter=parallelogramPerimeter;whiteSpace=wrap;html=1;fixedSize=1;fontSize=16;" vertex="1" parent="1">
          <mxGeometry x="1701" y="1567" width="160" height="60" as="geometry" />
        </mxCell>
        <mxCell id="DM1cx61J0RA44Y7iWUZQ-291" style="edgeStyle=orthogonalEdgeStyle;rounded=0;orthogonalLoop=1;jettySize=auto;html=1;" edge="1" parent="1" source="DM1cx61J0RA44Y7iWUZQ-292" target="DM1cx61J0RA44Y7iWUZQ-297">
          <mxGeometry relative="1" as="geometry" />
        </mxCell>
        <mxCell id="DM1cx61J0RA44Y7iWUZQ-292" value="&amp;amp;&quot;Zérushely:&amp;nbsp; &quot;" style="shape=parallelogram;perimeter=parallelogramPerimeter;whiteSpace=wrap;html=1;fixedSize=1;fontSize=16;" vertex="1" parent="1">
          <mxGeometry x="1701" y="1892" width="160" height="60" as="geometry" />
        </mxCell>
        <mxCell id="DM1cx61J0RA44Y7iWUZQ-293" value="" style="edgeStyle=orthogonalEdgeStyle;rounded=0;orthogonalLoop=1;jettySize=auto;html=1;entryX=1;entryY=0.5;entryDx=0;entryDy=0;" edge="1" parent="1" source="DM1cx61J0RA44Y7iWUZQ-297" target="DM1cx61J0RA44Y7iWUZQ-299">
          <mxGeometry relative="1" as="geometry">
            <mxPoint x="1641" y="2045" as="targetPoint" />
          </mxGeometry>
        </mxCell>
        <mxCell id="DM1cx61J0RA44Y7iWUZQ-294" value="i" style="edgeLabel;html=1;align=center;verticalAlign=middle;resizable=0;points=[];" vertex="1" connectable="0" parent="DM1cx61J0RA44Y7iWUZQ-293">
          <mxGeometry x="-0.2706" y="1" relative="1" as="geometry">
            <mxPoint as="offset" />
          </mxGeometry>
        </mxCell>
        <mxCell id="DM1cx61J0RA44Y7iWUZQ-295" style="edgeStyle=orthogonalEdgeStyle;rounded=0;orthogonalLoop=1;jettySize=auto;html=1;entryX=0;entryY=0.5;entryDx=0;entryDy=0;" edge="1" parent="1" source="DM1cx61J0RA44Y7iWUZQ-297" target="DM1cx61J0RA44Y7iWUZQ-301">
          <mxGeometry relative="1" as="geometry" />
        </mxCell>
        <mxCell id="DM1cx61J0RA44Y7iWUZQ-296" value="h" style="edgeLabel;html=1;align=center;verticalAlign=middle;resizable=0;points=[];" vertex="1" connectable="0" parent="DM1cx61J0RA44Y7iWUZQ-295">
          <mxGeometry x="-0.2588" y="2" relative="1" as="geometry">
            <mxPoint as="offset" />
          </mxGeometry>
        </mxCell>
        <mxCell id="DM1cx61J0RA44Y7iWUZQ-297" value="(-b/m) &amp;gt;= ÉTk&lt;br&gt;és&lt;br&gt;(-b/m &amp;lt;= ÉTv)" style="rhombus;whiteSpace=wrap;html=1;fontSize=16;" vertex="1" parent="1">
          <mxGeometry x="1726" y="1990" width="110" height="110" as="geometry" />
        </mxCell>
        <mxCell id="DM1cx61J0RA44Y7iWUZQ-298" style="edgeStyle=orthogonalEdgeStyle;rounded=0;orthogonalLoop=1;jettySize=auto;html=1;entryX=0.5;entryY=0;entryDx=0;entryDy=0;" edge="1" parent="1" source="DM1cx61J0RA44Y7iWUZQ-299" target="DM1cx61J0RA44Y7iWUZQ-278">
          <mxGeometry relative="1" as="geometry">
            <Array as="points">
              <mxPoint x="1571" y="2200" />
              <mxPoint x="1781" y="2200" />
            </Array>
          </mxGeometry>
        </mxCell>
        <mxCell id="DM1cx61J0RA44Y7iWUZQ-299" value="&amp;amp;&quot;-b/m&quot;" style="shape=parallelogram;perimeter=parallelogramPerimeter;whiteSpace=wrap;html=1;fixedSize=1;fontSize=16;" vertex="1" parent="1">
          <mxGeometry x="1491" y="2015" width="160" height="60" as="geometry" />
        </mxCell>
        <mxCell id="DM1cx61J0RA44Y7iWUZQ-300" style="edgeStyle=orthogonalEdgeStyle;rounded=0;orthogonalLoop=1;jettySize=auto;html=1;entryX=0.5;entryY=0;entryDx=0;entryDy=0;" edge="1" parent="1" source="DM1cx61J0RA44Y7iWUZQ-301" target="DM1cx61J0RA44Y7iWUZQ-278">
          <mxGeometry relative="1" as="geometry">
            <mxPoint x="1844.1666666666667" y="2271.833333333334" as="targetPoint" />
            <Array as="points">
              <mxPoint x="1991" y="2200" />
              <mxPoint x="1781" y="2200" />
            </Array>
          </mxGeometry>
        </mxCell>
        <mxCell id="DM1cx61J0RA44Y7iWUZQ-301" value="&amp;amp;&quot;nincs&quot;" style="shape=parallelogram;perimeter=parallelogramPerimeter;whiteSpace=wrap;html=1;fixedSize=1;fontSize=16;" vertex="1" parent="1">
          <mxGeometry x="1911" y="2015" width="160" height="60" as="geometry" />
        </mxCell>
        <mxCell id="DM1cx61J0RA44Y7iWUZQ-302" style="edgeStyle=orthogonalEdgeStyle;rounded=0;orthogonalLoop=1;jettySize=auto;html=1;entryX=0.5;entryY=0;entryDx=0;entryDy=0;" edge="1" parent="1" source="DM1cx61J0RA44Y7iWUZQ-303" target="DM1cx61J0RA44Y7iWUZQ-305">
          <mxGeometry relative="1" as="geometry" />
        </mxCell>
        <mxCell id="DM1cx61J0RA44Y7iWUZQ-303" value="START" style="ellipse;whiteSpace=wrap;html=1;fontSize=16;" vertex="1" parent="1">
          <mxGeometry x="989" y="1218" width="160" height="80" as="geometry" />
        </mxCell>
        <mxCell id="DM1cx61J0RA44Y7iWUZQ-304" style="edgeStyle=orthogonalEdgeStyle;rounded=0;orthogonalLoop=1;jettySize=auto;html=1;entryX=0.5;entryY=0;entryDx=0;entryDy=0;" edge="1" parent="1" source="DM1cx61J0RA44Y7iWUZQ-305" target="DM1cx61J0RA44Y7iWUZQ-307">
          <mxGeometry relative="1" as="geometry" />
        </mxCell>
        <mxCell id="DM1cx61J0RA44Y7iWUZQ-305" value="Ki:&quot;x:\t&quot;&amp;nbsp;" style="shape=parallelogram;perimeter=parallelogramPerimeter;whiteSpace=wrap;html=1;fixedSize=1;fontSize=16;" vertex="1" parent="1">
          <mxGeometry x="989" y="1350" width="160" height="60" as="geometry" />
        </mxCell>
        <mxCell id="DM1cx61J0RA44Y7iWUZQ-306" style="edgeStyle=orthogonalEdgeStyle;rounded=0;orthogonalLoop=1;jettySize=auto;html=1;entryX=0.5;entryY=0;entryDx=0;entryDy=0;" edge="1" parent="1" source="DM1cx61J0RA44Y7iWUZQ-307" target="DM1cx61J0RA44Y7iWUZQ-309">
          <mxGeometry relative="1" as="geometry" />
        </mxCell>
        <mxCell id="DM1cx61J0RA44Y7iWUZQ-307" value="i=0" style="whiteSpace=wrap;html=1;fontSize=16;" vertex="1" parent="1">
          <mxGeometry x="989" y="1457" width="160" height="60" as="geometry" />
        </mxCell>
        <mxCell id="DM1cx61J0RA44Y7iWUZQ-308" style="edgeStyle=orthogonalEdgeStyle;rounded=0;orthogonalLoop=1;jettySize=auto;html=1;entryX=0.5;entryY=0;entryDx=0;entryDy=0;" edge="1" parent="1" source="DM1cx61J0RA44Y7iWUZQ-309">
          <mxGeometry relative="1" as="geometry">
            <mxPoint x="1069" y="1738" as="targetPoint" />
          </mxGeometry>
        </mxCell>
        <mxCell id="DM1cx61J0RA44Y7iWUZQ-309" value="i=i+1" style="whiteSpace=wrap;html=1;fontSize=16;" vertex="1" parent="1">
          <mxGeometry x="989" y="1604" width="160" height="60" as="geometry" />
        </mxCell>
        <mxCell id="DM1cx61J0RA44Y7iWUZQ-310" style="edgeStyle=orthogonalEdgeStyle;rounded=0;orthogonalLoop=1;jettySize=auto;html=1;entryX=0.5;entryY=0;entryDx=0;entryDy=0;" edge="1" parent="1" target="DM1cx61J0RA44Y7iWUZQ-316">
          <mxGeometry relative="1" as="geometry">
            <mxPoint x="1069" y="1798" as="sourcePoint" />
          </mxGeometry>
        </mxCell>
        <mxCell id="DM1cx61J0RA44Y7iWUZQ-311" value="$ÉTk+i*(ÉTv-ÉTk)/20 $&quot;\t&quot;" style="shape=parallelogram;perimeter=parallelogramPerimeter;whiteSpace=wrap;html=1;fixedSize=1;fontSize=16;" vertex="1" parent="1">
          <mxGeometry x="964" y="1743" width="261" height="60" as="geometry" />
        </mxCell>
        <mxCell id="DM1cx61J0RA44Y7iWUZQ-312" style="edgeStyle=orthogonalEdgeStyle;rounded=0;orthogonalLoop=1;jettySize=auto;html=1;" edge="1" parent="1" source="DM1cx61J0RA44Y7iWUZQ-316">
          <mxGeometry relative="1" as="geometry">
            <mxPoint x="1069.4117647058824" y="1557.411764705883" as="targetPoint" />
            <Array as="points">
              <mxPoint x="1338" y="1931" />
              <mxPoint x="1338" y="1557" />
            </Array>
          </mxGeometry>
        </mxCell>
        <mxCell id="DM1cx61J0RA44Y7iWUZQ-313" value="i" style="edgeLabel;html=1;align=center;verticalAlign=middle;resizable=0;points=[];" vertex="1" connectable="0" parent="DM1cx61J0RA44Y7iWUZQ-312">
          <mxGeometry x="-0.735" relative="1" as="geometry">
            <mxPoint x="-1" as="offset" />
          </mxGeometry>
        </mxCell>
        <mxCell id="DM1cx61J0RA44Y7iWUZQ-314" style="edgeStyle=orthogonalEdgeStyle;rounded=0;orthogonalLoop=1;jettySize=auto;html=1;entryX=0.5;entryY=0;entryDx=0;entryDy=0;" edge="1" parent="1" source="DM1cx61J0RA44Y7iWUZQ-316" target="DM1cx61J0RA44Y7iWUZQ-318">
          <mxGeometry relative="1" as="geometry" />
        </mxCell>
        <mxCell id="DM1cx61J0RA44Y7iWUZQ-315" value="h" style="edgeLabel;html=1;align=center;verticalAlign=middle;resizable=0;points=[];" vertex="1" connectable="0" parent="DM1cx61J0RA44Y7iWUZQ-314">
          <mxGeometry x="-0.1077" relative="1" as="geometry">
            <mxPoint as="offset" />
          </mxGeometry>
        </mxCell>
        <mxCell id="DM1cx61J0RA44Y7iWUZQ-316" value="i&amp;lt;=19" style="rhombus;whiteSpace=wrap;html=1;fontSize=16;" vertex="1" parent="1">
          <mxGeometry x="1014" y="1876" width="110" height="110" as="geometry" />
        </mxCell>
        <mxCell id="DM1cx61J0RA44Y7iWUZQ-317" style="edgeStyle=orthogonalEdgeStyle;rounded=0;orthogonalLoop=1;jettySize=auto;html=1;entryX=0.5;entryY=0;entryDx=0;entryDy=0;" edge="1" parent="1" source="DM1cx61J0RA44Y7iWUZQ-318" target="DM1cx61J0RA44Y7iWUZQ-320">
          <mxGeometry relative="1" as="geometry" />
        </mxCell>
        <mxCell id="DM1cx61J0RA44Y7iWUZQ-318" value="Ki: ÉTv" style="shape=parallelogram;perimeter=parallelogramPerimeter;whiteSpace=wrap;html=1;fixedSize=1;fontSize=16;" vertex="1" parent="1">
          <mxGeometry x="989" y="2051" width="160" height="60" as="geometry" />
        </mxCell>
        <mxCell id="DM1cx61J0RA44Y7iWUZQ-319" style="edgeStyle=orthogonalEdgeStyle;rounded=0;orthogonalLoop=1;jettySize=auto;html=1;entryX=0.5;entryY=0;entryDx=0;entryDy=0;" edge="1" parent="1" source="DM1cx61J0RA44Y7iWUZQ-320" target="DM1cx61J0RA44Y7iWUZQ-322">
          <mxGeometry relative="1" as="geometry" />
        </mxCell>
        <mxCell id="DM1cx61J0RA44Y7iWUZQ-320" value="Ki:&quot;y:\t&quot;" style="shape=parallelogram;perimeter=parallelogramPerimeter;whiteSpace=wrap;html=1;fixedSize=1;fontSize=16;" vertex="1" parent="1">
          <mxGeometry x="989" y="2176" width="160" height="60" as="geometry" />
        </mxCell>
        <mxCell id="DM1cx61J0RA44Y7iWUZQ-321" style="edgeStyle=orthogonalEdgeStyle;rounded=0;orthogonalLoop=1;jettySize=auto;html=1;entryX=0.5;entryY=0;entryDx=0;entryDy=0;" edge="1" parent="1" source="DM1cx61J0RA44Y7iWUZQ-322" target="DM1cx61J0RA44Y7iWUZQ-324">
          <mxGeometry relative="1" as="geometry" />
        </mxCell>
        <mxCell id="DM1cx61J0RA44Y7iWUZQ-322" value="$m*ÉTk+b$&quot;\t&quot;" style="shape=parallelogram;perimeter=parallelogramPerimeter;whiteSpace=wrap;html=1;fixedSize=1;fontSize=16;" vertex="1" parent="1">
          <mxGeometry x="989" y="2272" width="160" height="60" as="geometry" />
        </mxCell>
        <mxCell id="DM1cx61J0RA44Y7iWUZQ-323" style="edgeStyle=orthogonalEdgeStyle;rounded=0;orthogonalLoop=1;jettySize=auto;html=1;entryX=0.5;entryY=0;entryDx=0;entryDy=0;" edge="1" parent="1" source="DM1cx61J0RA44Y7iWUZQ-324" target="DM1cx61J0RA44Y7iWUZQ-326">
          <mxGeometry relative="1" as="geometry" />
        </mxCell>
        <mxCell id="DM1cx61J0RA44Y7iWUZQ-324" value="j=0" style="whiteSpace=wrap;html=1;fontSize=16;" vertex="1" parent="1">
          <mxGeometry x="989" y="2387" width="160" height="60" as="geometry" />
        </mxCell>
        <mxCell id="DM1cx61J0RA44Y7iWUZQ-325" style="edgeStyle=orthogonalEdgeStyle;rounded=0;orthogonalLoop=1;jettySize=auto;html=1;entryX=0.5;entryY=0;entryDx=0;entryDy=0;" edge="1" parent="1" source="DM1cx61J0RA44Y7iWUZQ-326" target="DM1cx61J0RA44Y7iWUZQ-328">
          <mxGeometry relative="1" as="geometry" />
        </mxCell>
        <mxCell id="DM1cx61J0RA44Y7iWUZQ-326" value="j=j+1" style="whiteSpace=wrap;html=1;fontSize=16;" vertex="1" parent="1">
          <mxGeometry x="989" y="2498" width="160" height="60" as="geometry" />
        </mxCell>
        <mxCell id="DM1cx61J0RA44Y7iWUZQ-327" style="edgeStyle=orthogonalEdgeStyle;rounded=0;orthogonalLoop=1;jettySize=auto;html=1;entryX=0.5;entryY=0;entryDx=0;entryDy=0;" edge="1" parent="1" source="DM1cx61J0RA44Y7iWUZQ-328" target="DM1cx61J0RA44Y7iWUZQ-333">
          <mxGeometry relative="1" as="geometry" />
        </mxCell>
        <mxCell id="DM1cx61J0RA44Y7iWUZQ-328" value="&amp;amp;m*(ÉTk+j*((ÉTv-ÉTK)/20)+b)$&quot;\t&quot;" style="shape=parallelogram;perimeter=parallelogramPerimeter;whiteSpace=wrap;html=1;fixedSize=1;fontSize=16;" vertex="1" parent="1">
          <mxGeometry x="989" y="2601" width="160" height="60" as="geometry" />
        </mxCell>
        <mxCell id="DM1cx61J0RA44Y7iWUZQ-329" style="edgeStyle=orthogonalEdgeStyle;rounded=0;orthogonalLoop=1;jettySize=auto;html=1;" edge="1" parent="1" source="DM1cx61J0RA44Y7iWUZQ-333">
          <mxGeometry relative="1" as="geometry">
            <mxPoint x="1069" y="2468" as="targetPoint" />
            <Array as="points">
              <mxPoint x="1191" y="2782" />
              <mxPoint x="1191" y="2468" />
            </Array>
          </mxGeometry>
        </mxCell>
        <mxCell id="DM1cx61J0RA44Y7iWUZQ-330" value="i" style="edgeLabel;html=1;align=center;verticalAlign=middle;resizable=0;points=[];" vertex="1" connectable="0" parent="DM1cx61J0RA44Y7iWUZQ-329">
          <mxGeometry x="-0.8476" y="-2" relative="1" as="geometry">
            <mxPoint as="offset" />
          </mxGeometry>
        </mxCell>
        <mxCell id="DM1cx61J0RA44Y7iWUZQ-331" style="edgeStyle=orthogonalEdgeStyle;rounded=0;orthogonalLoop=1;jettySize=auto;html=1;entryX=0.5;entryY=0;entryDx=0;entryDy=0;" edge="1" parent="1" source="DM1cx61J0RA44Y7iWUZQ-333" target="DM1cx61J0RA44Y7iWUZQ-335">
          <mxGeometry relative="1" as="geometry">
            <mxPoint x="1074" y="2888.333333333334" as="targetPoint" />
          </mxGeometry>
        </mxCell>
        <mxCell id="DM1cx61J0RA44Y7iWUZQ-332" value="h" style="edgeLabel;html=1;align=center;verticalAlign=middle;resizable=0;points=[];" vertex="1" connectable="0" parent="DM1cx61J0RA44Y7iWUZQ-331">
          <mxGeometry x="-0.1306" y="3" relative="1" as="geometry">
            <mxPoint as="offset" />
          </mxGeometry>
        </mxCell>
        <mxCell id="DM1cx61J0RA44Y7iWUZQ-333" value="j&amp;lt;=19" style="rhombus;whiteSpace=wrap;html=1;fontSize=16;" vertex="1" parent="1">
          <mxGeometry x="1014" y="2727" width="110" height="110" as="geometry" />
        </mxCell>
        <mxCell id="DM1cx61J0RA44Y7iWUZQ-334" style="edgeStyle=orthogonalEdgeStyle;rounded=0;orthogonalLoop=1;jettySize=auto;html=1;" edge="1" parent="1" source="DM1cx61J0RA44Y7iWUZQ-335" target="DM1cx61J0RA44Y7iWUZQ-336">
          <mxGeometry relative="1" as="geometry" />
        </mxCell>
        <mxCell id="DM1cx61J0RA44Y7iWUZQ-335" value="&amp;nbsp;&amp;amp;m*ÉTv+b" style="shape=parallelogram;perimeter=parallelogramPerimeter;whiteSpace=wrap;html=1;fixedSize=1;fontSize=16;" vertex="1" parent="1">
          <mxGeometry x="989" y="2911" width="160" height="60" as="geometry" />
        </mxCell>
        <mxCell id="DM1cx61J0RA44Y7iWUZQ-336" value="START" style="ellipse;whiteSpace=wrap;html=1;fontSize=16;" vertex="1" parent="1">
          <mxGeometry x="989" y="3040" width="160" height="80" as="geometry" />
        </mxCell>
      </root>
    </mxGraphModel>
  </diagram>
</mxfile>
